<svg xmlns="http://www.w3.org/2000/svg" width="10" height="11" viewBox="0 0 10 11">
    <g fill="none" fill-rule="evenodd">
        <g fill="#364AED" fill-rule="nonzero">
            <g>
                <path d="M9.986 2.5c-.071-.67-.4-1.273-.924-1.696L8.761.56C8.313.2 7.748 0 7.17 0c-.768 0-1.486.34-1.968.934L.563 6.65c-.425.523-.62 1.18-.549 1.85.071.67.4 1.272.925 1.696l.301.244c.448.361 1.013.56 1.59.56.088 0 .178-.005.267-.014.668-.07 1.269-.394 1.691-.909l3.13-3.855c.557-.687.45-1.697-.238-2.252l-.158-.128c-.285-.23-.643-.355-1.009-.355-.488 0-.944.216-1.25.593L2.139 7.928c-.204.252-.165.622.087.826.105.084.236.13.37.13.179 0 .346-.079.458-.217l3.124-3.849c.082-.1.204-.158.334-.158.1 0 .192.033.27.095l.158.127c.088.072.144.174.156.288.012.114-.021.225-.093.314l-3.12 3.844c-.258.317-.642.499-1.053.499-.308 0-.61-.107-.849-.3l-.302-.243c-.28-.227-.456-.549-.494-.907-.038-.358.066-.71.294-.989l4.64-5.715c.257-.318.64-.5 1.052-.5.308 0 .61.107.85.3l.3.243c.58.468.67 1.318.201 1.896-.098.122-.144.275-.127.43.016.157.093.297.215.395.104.085.236.13.37.13.178 0 .345-.078.458-.217.424-.522.619-1.18.548-1.85z" transform="translate(-87 -57) translate(87 57)"/>
            </g>
        </g>
    </g>
</svg>
