<svg xmlns="http://www.w3.org/2000/svg" width="12" height="12" viewBox="0 0 12 12">
    <g fill="none" fill-rule="evenodd">
        <g fill="#666871" fill-rule="nonzero">
            <g>
                <path d="M4.359 0H.914C.41 0 0 .41 0 .914v3.445c0 .504.41.913.914.913h3.445c.504 0 .914-.41.914-.913V.914C5.273.41 4.863 0 4.359 0zM11.086 0H7.641c-.504 0-.913.41-.913.914v3.445c0 .504.41.913.913.913h3.445c.504 0 .914-.41.914-.913V.914C12 .41 11.59 0 11.086 0zM4.359 6.728H.914c-.504 0-.914.41-.914.913v3.445c0 .504.41.914.914.914h3.445c.504 0 .914-.41.914-.914V7.641c0-.504-.41-.913-.914-.913zM11.086 6.728H7.641c-.504 0-.913.41-.913.913v3.445c0 .504.41.914.913.914h3.445c.504 0 .914-.41.914-.914V7.641c0-.504-.41-.913-.914-.913z" transform="translate(-554 -31) translate(554 31)"/>
            </g>
        </g>
    </g>
</svg>
