<svg xmlns="http://www.w3.org/2000/svg" width="16" height="15" viewBox="0 0 16 15">
    <g fill="none" fill-rule="evenodd">
        <g>
            <g>
                <path fill="#ECEFF1" d="M15.5 12.974h-7c-.276 0-.5-.224-.5-.5V2.496c0-.275.224-.498.5-.498h7c.276 0 .5.223.5.498v9.98c0 .275-.224.499-.5.499" transform="translate(-45 -55) translate(45 55)"/>
                <path fill="#388E3C" d="M10.5 4.99h-2c-.276 0-.5-.223-.5-.499 0-.275.224-.499.5-.499h2c.276 0 .5.224.5.5 0 .275-.224.498-.5.498M10.5 6.986h-2c-.276 0-.5-.223-.5-.499 0-.275.224-.499.5-.499h2c.276 0 .5.224.5.5 0 .275-.224.498-.5.498M10.5 8.982h-2c-.276 0-.5-.224-.5-.499s.224-.499.5-.499h2c.276 0 .5.224.5.499s-.224.499-.5.499M10.5 10.978h-2c-.276 0-.5-.224-.5-.5 0-.275.224-.498.5-.498h2c.276 0 .5.223.5.499 0 .275-.224.499-.5.499M13.5 4.99h-1c-.276 0-.5-.223-.5-.499 0-.275.224-.499.5-.499h1c.276 0 .5.224.5.5 0 .275-.224.498-.5.498M13.5 6.986h-1c-.276 0-.5-.223-.5-.499 0-.275.224-.499.5-.499h1c.276 0 .5.224.5.5 0 .275-.224.498-.5.498M13.5 8.982h-1c-.276 0-.5-.224-.5-.499s.224-.499.5-.499h1c.276 0 .5.224.5.499s-.224.499-.5.499M13.5 10.978h-1c-.276 0-.5-.224-.5-.5 0-.275.224-.498.5-.498h1c.276 0 .5.223.5.499 0 .275-.224.499-.5.499" transform="translate(-45 -55) translate(45 55)"/>
                <path fill="#2E7D32" d="M8.819.115C8.705.021 8.552-.02 8.408.01l-8 1.497C.171 1.55 0 1.756 0 1.997v10.977c0 .24.171.446.408.49l8 1.497c.03.006.061.008.092.008.116 0 .229-.04.319-.114.115-.095.181-.237.181-.384V.5C9 .35 8.934.21 8.819.115" transform="translate(-45 -55) translate(45 55)"/>
                <path fill="#FAFAFA" d="M6.876 9.153L5.295 7.349l1.599-2.051c.17-.218.13-.531-.087-.7-.217-.17-.531-.13-.702.086l-1.481 1.9-1.248-1.423c-.183-.21-.499-.229-.705-.047-.208.182-.229.497-.047.704l1.375 1.568-1.394 1.789c-.17.217-.13.53.087.7.092.07.201.105.308.105.149 0 .296-.066.395-.193L4.67 8.151l1.454 1.657c.099.114.237.172.376.172.117 0 .234-.041.329-.124.208-.181.229-.497.047-.703" transform="translate(-45 -55) translate(45 55)"/>
            </g>
        </g>
    </g>
</svg>
