<svg xmlns="http://www.w3.org/2000/svg" width="14" height="14" viewBox="0 0 14 14">
    <g fill="none" fill-rule="evenodd">
        <g fill="#666871" fill-rule="nonzero">
            <g>
                <path d="M13.814 6.649c.254-.28.23-.707-.054-.955L7.508.224c-.284-.249-.74-.244-1.017.011L.218 5.985c-.278.255-.292.682-.03.954l.157.164c.26.271.682.304.941.072l.469-.42v6.147c0 .377.306.682.682.682h2.446c.377 0 .682-.305.682-.682v-4.3h3.12v4.3c-.006.377.264.682.64.682h2.592c.377 0 .682-.305.682-.682v-6.06l.29.253c.16.14.494.028.748-.251l.177-.195z" transform="translate(-1076 -30) translate(1076 30)"/>
            </g>
        </g>
    </g>
</svg>
