<svg xmlns="http://www.w3.org/2000/svg" width="13" height="16" viewBox="0 0 13 16">
    <g fill="none" fill-rule="evenodd">
        <g fill="#666871" fill-rule="nonzero">
            <g>
                <path d="M12.586 10.985c-.981-.83-1.545-2.043-1.545-3.329v-1.81c0-2.286-1.697-4.178-3.897-4.495V.649c0-.359-.29-.649-.65-.649-.358 0-.649.29-.649.65v.701c-2.2.317-3.897 2.209-3.897 4.494v1.811c0 1.286-.563 2.499-1.55 3.334-.253.216-.398.53-.398.863 0 .627.51 1.137 1.137 1.137h10.716c.627 0 1.137-.51 1.137-1.137 0-.332-.145-.647-.404-.868zM6.495 15.588c1.176 0 2.16-.839 2.386-1.949H4.11c.226 1.11 1.21 1.949 2.386 1.949z" transform="translate(-1124 -29) translate(1124 29)"/>
            </g>
        </g>
    </g>
</svg>
