<svg xmlns="http://www.w3.org/2000/svg" width="12" height="13" viewBox="0 0 12 13">
    <g fill="none" fill-rule="evenodd">
        <g fill="#666871" fill-rule="nonzero">
            <g>
                <path d="M11.986 3.864c0-.522-.102-1.027-.303-1.505-.195-.46-.473-.873-.828-1.228-.354-.354-.768-.633-1.228-.828C9.151.101 8.644 0 8.123 0 7.6 0 7.095.103 6.618.303c-.46.195-.873.474-1.228.828-.355.355-.633.768-.828 1.228-.202.476-.303.983-.303 1.505 0 .652.164 1.29.476 1.86l-4.626 4.62c-.107.107-.14.27-.074.424.013.032.035.061.06.086L1.13 11.89c.025.025.054.046.086.06.154.066.317.034.424-.075l.64-.64.921.922c.025.025.055.045.087.06.154.066.316.034.423-.075l1.022-1.021c.024-.025.045-.054.06-.087.066-.153.033-.316-.075-.423l-.907-.907 2.45-2.451c.567.312 1.207.476 1.86.476.52 0 1.026-.103 1.504-.303.46-.195.873-.474 1.228-.828.354-.355.633-.768.828-1.228.202-.48.304-.985.304-1.506zm-2.51 1.355c-.361.362-.844.561-1.355.561s-.993-.199-1.355-.561c-.362-.362-.563-.844-.563-1.355 0-.513.2-.994.561-1.356.362-.361.844-.56 1.356-.56.511 0 .993.199 1.355.56.362.362.561.844.561 1.356.003.511-.196.993-.56 1.355z" transform="translate(-986 -31) translate(986 31)"/>
            </g>
        </g>
    </g>
</svg>
