<svg xmlns="http://www.w3.org/2000/svg" width="13" height="13" viewBox="0 0 13 13">
    <g fill="none" fill-rule="evenodd">
        <g fill="#035FDA" fill-rule="nonzero" stroke="#035FDA">
            <g>
                <path d="M4.187 0C6.5 0 8.374 1.899 8.374 4.241c0 1.056-.38 2.021-1.01 2.763L11 10.687l-.455.462-3.637-3.684c-.732.635-1.682 1.018-2.72 1.018C1.874 8.483 0 6.584 0 4.24 0 1.9 1.875 0 4.187 0zm0 .653C2.23.653.644 2.259.644 4.24c0 1.983 1.586 3.59 3.543 3.59S7.73 6.223 7.73 4.24C7.73 2.26 6.144.653 4.187.653z" transform="translate(-204 -30) translate(205 31)"/>
            </g>
        </g>
    </g>
</svg>
