<svg xmlns="http://www.w3.org/2000/svg" width="13" height="13" viewBox="0 0 13 13">
    <g fill="none" fill-rule="evenodd">
        <g fill="#666871" fill-rule="nonzero">
            <g>
                <g>
                    <path d="M11.482.035l-7.9 3.16H1.438C.645 3.195 0 3.84 0 4.632V6.39c0 .753.591 1.278 1.438 1.278h.543l.58 4.06c.034.237.235.412.474.412h1.917c.136 0 .266-.058.357-.16.091-.101.134-.237.12-.373L5.05 8.255l6.43 2.572c.059.023.119.034.179.034.094 0 .188-.028.269-.082.132-.09.21-.238.21-.397V.48c0-.159-.078-.307-.21-.396-.132-.09-.3-.108-.447-.048z" transform="translate(-884 -31) translate(884 31)"/>
                </g>
            </g>
        </g>
    </g>
</svg>
