<svg xmlns="http://www.w3.org/2000/svg" xmlns:xlink="http://www.w3.org/1999/xlink" width="13" height="14" viewBox="0 0 13 14">
    <defs>
        <path id="prefix__a" d="M0.037 0.058L11.552 0.058 11.552 12.318 0.037 12.318z"/>
        <path id="prefix__c" d="M0 0.036L2.872 0.036 2.872 2.838 0 2.838z"/>
    </defs>
    <g fill="none" fill-rule="evenodd">
        <g transform="translate(1.373 .034)">
            <mask id="prefix__b" fill="#fff">
                <use xlink:href="#prefix__a"/>
            </mask>
            <path fill="#28D025" d="M5.132 7.392L5.9 8.526l-4.448-.095 2.836-.83-.768-1.134 4.447.096-2.835.829zm6.272-3.811l-.336-.298c-.196-.173-.494-.154-.667.041L8.532 5.438 6.045 3.24l1.86-2.105C8.08.94 8.063.64 7.869.466L7.54.172c-.183-.165-.466-.15-.629.036L5.027 2.34l-.848-.75-.059-.052c-.123-.109-.312-.097-.421.026L2.595 2.813c-.111.126-.091.312.032.426.11.104.127.274.036.397L.97 5.92C.077 7.124.02 8.705.72 9.946l-.683.773.283.25 1.244 1.1.282.25.684-.774c1.317.544 2.88.293 3.965-.74l2.06-1.963c.112-.107.29-.1.41 0 .123.102.307.089.414-.032l1.104-1.25c.11-.123.097-.311-.026-.42l-.06-.053-.847-.75 1.892-2.14c.16-.18.143-.457-.038-.616z" mask="url(#prefix__b)"/>
        </g>
        <g transform="translate(0 11.111)">
            <mask id="prefix__d" fill="#fff">
                <use xlink:href="#prefix__c"/>
            </mask>
            <path fill="#28D025" d="M0 1.24L1.808 2.838 2.872 1.634 1.065 0.036z" mask="url(#prefix__d)"/>
        </g>
    </g>
</svg>
